<svg width="71" height="49" viewBox="0 0 71 49" fill="none" xmlns="http://www.w3.org/2000/svg">
<path d="M47.0136 39.3668C54.9619 39.3668 61.4054 32.9234 61.4054 24.975C61.4054 17.0266 54.9619 10.5831 47.0136 10.5831C39.5539 10.5831 33.4198 16.2584 32.6936 23.5268C29.7533 22.1969 26.5766 21.4021 23.3236 21.1929C25.1372 9.74251 35.0531 0.988525 47.0136 0.988525C60.2609 0.988525 71 11.7276 71 24.975C71 37.7391 61.0299 48.1747 48.4526 48.919V48.9614H32.645V46.868C32.645 44.1485 31.5235 41.5042 29.4679 39.5271C27.4066 37.5443 24.5751 36.4013 21.5878 36.4013C18.6005 36.4013 15.769 37.5443 13.7077 39.5271C11.6522 41.5042 10.5306 44.1485 10.5306 46.868V48.9614H0V46.8168C0 41.2103 2.32673 35.8775 6.39648 31.9788C10.336 28.2047 15.5968 26.0666 21.0734 25.9404C21.2447 25.9365 21.4162 25.9344 21.5878 25.9344C21.7207 25.9344 21.8535 25.9356 21.9862 25.938C27.5044 26.0365 32.8118 28.178 36.7791 31.9788C38.9769 34.0842 40.6664 36.6078 41.7555 39.3668H47.0136Z" fill="#4FD1C5"/>
<path d="M25.9977 42.8743C27.1672 43.8913 27.8243 45.2708 27.8243 46.7091V48.9614H15.3513V46.7091C15.3513 45.2708 16.0084 43.8913 17.1779 42.8743C18.3475 41.8571 19.9338 41.2858 21.5878 41.2858C23.2418 41.2858 24.8281 41.8571 25.9977 42.8743Z" fill="#4FD1C5"/>
<path d="M52.5084 22.6199C50.7741 22.6199 49.3684 21.2141 49.3684 19.4799V18.6948C49.3684 17.3943 48.314 16.3398 47.0133 16.3398C45.7126 16.3398 44.6583 17.3942 44.6583 18.6948V19.4799C44.6583 21.2141 43.2525 22.6199 41.5182 22.6199H40.7332C39.4326 22.6199 38.3782 23.6743 38.3782 24.975C38.3782 26.2756 39.4326 27.33 40.7332 27.33H41.5182C43.2525 27.33 44.6583 28.7358 44.6583 30.47V31.2551C44.6583 32.5558 45.7126 33.6101 47.0133 33.6101C48.314 33.6101 49.3684 32.5558 49.3684 31.2551V30.47C49.3684 28.7358 50.7741 27.33 52.5084 27.33H53.2934C54.5941 27.33 55.6484 26.2756 55.6484 24.975C55.6484 23.6743 54.5941 22.6199 53.2934 22.6199H52.5084Z" fill="#4FD1C5"/>
<path d="M13.4325 4.82641C13.4325 6.94594 15.1508 8.66418 17.2704 8.66418H18.2297C19.8194 8.66418 21.1081 9.95287 21.1081 11.5426C21.1081 13.1323 19.8194 14.4209 18.2297 14.4209H17.2704C15.1508 14.4209 13.4325 16.1392 13.4325 18.2586V19.2182C13.4325 20.8079 12.1439 22.0966 10.5542 22.0966C8.96449 22.0966 7.6758 20.8079 7.6758 19.2182V18.2588C7.6758 16.1392 5.95754 14.4209 3.83796 14.4209H2.87837C1.2887 14.4209 0 13.1323 0 11.5426C0 9.95287 1.2887 8.66418 2.87837 8.66418H3.83798C5.95754 8.66418 7.6758 6.94593 7.6758 4.82636V3.8669C7.6758 2.27722 8.96449 0.988525 10.5542 0.988525C12.1439 0.988525 13.4325 2.27722 13.4325 3.8669V4.82641Z" fill="#4FD1C5"/>
</svg>
